HIERARCHY
ROOT hip
{
  OFFSET 0 0 0
  CHANNELS 6 Xposition Yposition Zposition Zrotation Yrotation Xrotation
  JOINT abdomen
  {
    OFFSET 0 20.6881 -0.73152
    CHANNELS 3 Zrotation Xrotation Yrotation
    JOINT chest
    {
      OFFSET 0 11.7043 -0.48768
      CHANNELS 3 Zrotation Xrotation Yrotation
      JOINT neck
      {
        OFFSET 0 22.1894 -2.19456
        CHANNELS 3 Zrotation Xrotation Yrotation
        JOINT head
        {
          OFFSET -0.24384 7.07133 1.2192
          CHANNELS 3 Zrotation Xrotation Yrotation
          JOINT leftEye
          {
            OFFSET 4.14528 8.04674 8.04672
            CHANNELS 3 Zrotation Xrotation Yrotation
            End Site
            {
              OFFSET 1 0 0
            }
          }
          JOINT rightEye
          {
            OFFSET -3.6576 8.04674 8.04672
            CHANNELS 3 Zrotation Xrotation Yrotation
            End Site
            {
              OFFSET 1 0 0
            }
          }
        }
      }
      JOINT rCollar
      {
        OFFSET -2.68224 19.2634 -4.8768
        CHANNELS 3 Zrotation Xrotation Yrotation
        JOINT rShldr
        {
          OFFSET -8.77824 -1.95073 1.46304
          CHANNELS 3 Zrotation Xrotation Yrotation
          JOINT rForeArm
          {
            OFFSET -28.1742 -1.7115 0.48768
            CHANNELS 3 Zrotation Xrotation Yrotation
            JOINT rHand
            {
              OFFSET -22.5879 0.773209 7.07136
              CHANNELS 3 Zrotation Xrotation Yrotation
              JOINT rThumb1
              {
                OFFSET -1.2192 -0.487915 3.41376
                CHANNELS 3 Zrotation Xrotation Yrotation
                JOINT rThumb2
                {
                  OFFSET -3.37035 -0.52449 3.41376
                  CHANNELS 3 Zrotation Xrotation Yrotation
                  End Site
                  {
                    OFFSET -1.78271 -1.18214 1.43049
                  }
                }
              }
              JOINT rIndex1
              {
                OFFSET -7.75947 0.938293 5.60832
                CHANNELS 3 Zrotation Xrotation Yrotation
                JOINT rIndex2
                {
                  OFFSET -2.54057 -0.884171 1.56538
                  CHANNELS 3 Zrotation Xrotation Yrotation
                  End Site
                  {
                    OFFSET -1.62519 -0.234802 1.16502
                  }
                }
              }
              JOINT rMid1
              {
                OFFSET -8.24714 1.18213 3.41376
                CHANNELS 3 Zrotation Xrotation Yrotation
                JOINT rMid2
                {
                  OFFSET -3.10165 -0.590103 1.0647
                  CHANNELS 3 Zrotation Xrotation Yrotation
                  End Site
                  {
                    OFFSET -2.48547 -0.328903 0.83742
                  }
                }
              }
              JOINT rRing1
              {
                OFFSET -8.82822 0.546677 1.51678
                CHANNELS 3 Zrotation Xrotation Yrotation
                JOINT rRing2
                {
                  OFFSET -2.60934 -0.819778 -0.0198488
                  CHANNELS 3 Zrotation Xrotation Yrotation
                  End Site
                  {
                    OFFSET -2.33842 -0.294052 0.168128
                  }
                }
              }
              JOINT rPinky1
              {
                OFFSET -8.27202 -0.0477905 -0.4584
                CHANNELS 3 Zrotation Xrotation Yrotation
                JOINT rPinky2
                {
                  OFFSET -1.82734 -0.647385 -0.700984
                  CHANNELS 3 Zrotation Xrotation Yrotation
                  End Site
                  {
                    OFFSET -1.69225 -0.51767 -0.607171
                  }
                }
              }
            }
          }
        }
      }
      JOINT lCollar
      {
        OFFSET 2.68224 19.2634 -4.8768
        CHANNELS 3 Zrotation Xrotation Yrotation
        JOINT lShldr
        {
          OFFSET 8.77824 -1.95073 1.46304
          CHANNELS 3 Zrotation Xrotation Yrotation
          JOINT lForeArm
          {
            OFFSET 28.1742 -1.7115 0.48768
            CHANNELS 3 Zrotation Xrotation Yrotation
            JOINT lHand
            {
              OFFSET 22.5879 0.773209 7.07136
              CHANNELS 3 Zrotation Xrotation Yrotation
              JOINT lThumb1
              {
                OFFSET 1.2192 -0.487915 3.41376
                CHANNELS 3 Zrotation Xrotation Yrotation
                JOINT lThumb2
                {
                  OFFSET 3.37035 -0.52449 3.41376
                  CHANNELS 3 Zrotation Xrotation Yrotation
                  End Site
                  {
                    OFFSET 1.78271 -1.18214 1.43049
                  }
                }
              }
              JOINT lIndex1
              {
                OFFSET 7.75947 0.938293 5.60832
                CHANNELS 3 Zrotation Xrotation Yrotation
                JOINT lIndex2
                {
                  OFFSET 2.54057 -0.884171 1.56538
                  CHANNELS 3 Zrotation Xrotation Yrotation
                  End Site
                  {
                    OFFSET 1.62519 -0.234802 1.16502
                  }
                }
              }
              JOINT lMid1
              {
                OFFSET 8.24714 1.18213 3.41376
                CHANNELS 3 Zrotation Xrotation Yrotation
                JOINT lMid2
                {
                  OFFSET 3.10165 -0.590103 1.0647
                  CHANNELS 3 Zrotation Xrotation Yrotation
                  End Site
                  {
                    OFFSET 2.48547 -0.328903 0.83742
                  }
                }
              }
              JOINT lRing1
              {
                OFFSET 8.82822 0.546677 1.51678
                CHANNELS 3 Zrotation Xrotation Yrotation
                JOINT lRing2
                {
                  OFFSET 2.60934 -0.819778 -0.0198488
                  CHANNELS 3 Zrotation Xrotation Yrotation
                  End Site
                  {
                    OFFSET 2.33842 -0.294052 0.168128
                  }
                }
              }
              JOINT lPinky1
              {
                OFFSET 8.27202 -0.0477905 -0.4584
                CHANNELS 3 Zrotation Xrotation Yrotation
                JOINT lPinky2
                {
                  OFFSET 1.82734 -0.647385 -0.700984
                  CHANNELS 3 Zrotation Xrotation Yrotation
                  End Site
                  {
                    OFFSET 1.69225 -0.51767 -0.607171
                  }
                }
              }
            }
          }
        }
      }
    }
  }
  JOINT rButtock
  {
    OFFSET -8.77824 4.35084 1.2192
    CHANNELS 3 Zrotation Xrotation Yrotation
    JOINT rThigh
    {
      OFFSET 0 -1.70687 -2.19456
      CHANNELS 3 Zrotation Xrotation Yrotation
      JOINT rShin
      {
        OFFSET 0 -36.8199 0.73152
        CHANNELS 3 Zrotation Xrotation Yrotation
        JOINT rFoot
        {
          OFFSET 0.73152 -45.1104 -5.12064
          CHANNELS 3 Zrotation Xrotation Yrotation
          End Site
          {
            OFFSET -1.1221 -3.69964 12.103
          }
        }
      }
    }
  }
  JOINT lButtock
  {
    OFFSET 8.77824 4.35084 1.2192
    CHANNELS 3 Zrotation Xrotation Yrotation
    JOINT lThigh
    {
      OFFSET 0 -1.70687 -2.19456
      CHANNELS 3 Zrotation Xrotation Yrotation
      JOINT lShin
      {
        OFFSET 0 -36.8199 0.73152
        CHANNELS 3 Zrotation Xrotation Yrotation
        JOINT lFoot
        {
          OFFSET -0.73152 -45.1104 -5.12064
          CHANNELS 3 Zrotation Xrotation Yrotation
          End Site
          {
            OFFSET 1.1221 -3.69964 12.103
          }
        }
      }
    }
  }
}
MOTION
Frames:	5
Frame Time:	0.00833333
54.1832 56.3575 -33.7422 -0.505531 -7.41478 3.172624 -3.811746 13.085994 -14.456481 8.761854 -9.927249 10.307237 6.784287 28.399792 91.990437 -39.516273 14.862933 -132.897297 0.004415 0.0 0.003903 -0.001965 -0.0 8.1e-05 -154.603505 1.981841 160.62858 -33.930841 -14.774935 -17.221577 -27.887066 -16.51559 -129.718142 111.846406 -62.769712 100.532432 -160.312032 1.960865 88.926476 -29.369559 -29.04626 11.176092 -157.696912 -28.886148 122.533359 -10.698062 36.065002 2.962996 0.484541 -1.417475 -0.26452 -175.323699 -39.644994 143.309985 0.003362 0.240463 0.075388 2.128015 48.041741 10.073805 -148.288719 22.567571 -144.512218 2.779908 1.710162 -1.452928 152.659732 11.808262 -158.193684 -77.079097 -55.659071 -124.629184 -37.690512 -1.988171 -119.013542 22.618612 -9.172255 -0.683932 -167.569938 -28.233599 -86.129757 156.188486 6.721467 -90.593963 141.371825 0.406898 -116.579783 -26.887938 -34.094447 8.624584 165.968896 -23.560963 -145.04969 -3.34103 -0.529667 -0.281758 0.005693 -0.651037 0.204889 156.295077 -19.993667 -174.200882 141.637585 1.729031 138.625348 166.928916 65.100988 145.309145 -179.999823 75.748392 -9.2e-05 144.869373 8.206671 141.423405 71.165275 -48.850056 168.317985 151.695488 8.803423 -77.656962 4.5e-05 -0.000443 -3.4e-05 38.21917 -21.678974 -82.573217 -89.278043 -28.792635 -137.862542 -30.146774 20.34622 -106.428209
54.2456 56.24550000000001 -33.8298 -0.547623 -7.373628 3.187605 -1.976949 11.484358 -72.336513 10.984356 0.812006 67.115253 -15.882285 28.67189 -70.858619 40.60132 -3.743819 29.591505 -0.00282 -0.0 0.001045 0.002841 0.0 0.000165 -4.047133 18.962717 4.965441 17.50931 20.362802 49.90689 15.824871 -83.910986 97.485235 -10.44757 49.026903 5.336771 -169.697743 -7.380764 89.933307 -80.26881 5.918902 28.017759 -86.99155 41.767741 72.908859 1.163201 8.027199 -3.564351 -147.341708 26.035979 134.358406 -168.696743 -21.520192 143.952126 -0.000177 0.179998 0.056332 -156.593528 -33.972743 175.856397 -160.628211 67.833172 -151.119875 -117.860397 -39.487239 -115.297734 14.03066 42.881398 -15.872968 133.504693 -44.569098 -132.901725 72.914897 27.994414 136.835433 167.564672 -47.190759 -163.807213 19.545434 17.434823 -5.914745 -158.111406 -73.268632 -74.894268 134.837639 10.141626 -112.496127 9.836929 29.6758 -0.160798 7.120943 18.14775 -4.673434 132.158843 50.005292 -121.15152 145.122901 1.312354 179.541117 151.678526 -29.430672 174.413256 152.67937 39.213885 147.918724 158.608792 44.770664 146.783519 0.001539 0.000775 0.002791 -58.997573 -47.843437 41.283822 81.770544 -10.232098 132.315737 -56.092392 55.826854 155.762528 0.001539 0.000775 0.002791 36.103708 -21.614244 70.819739 66.444144 62.114071 -131.075445 67.287433 -75.634319 137.502972
54.2941 56.143699999999995 -33.915099999999995 -0.621496 -7.346079 3.202592 -3.377073 8.471548 -162.339382 -3.206312 8.522633 157.505075 2.850535 37.476392 151.480543 -17.659066 47.025869 169.689123 -0.002096 -0.0 0.00014 -0.002096 -0.0 0.00014 -159.190292 -51.754593 171.255466 129.622365 54.018867 -114.667039 -0.253492 -23.010053 84.181091 -8.595705 44.897747 4.528584 12.818818 -12.777556 -0.544263 -129.688604 -16.895131 116.869977 -82.82717 42.462702 69.178789 -161.322098 -4.990401 114.031275 -161.905516 -10.524082 143.787022 170.926158 -60.715642 135.186344 0.003433 0.730242 0.229352 -79.8103 -86.840804 -101.402747 -7.75483 -16.812919 -7.310527 -151.333462 26.905053 -146.770346 157.425955 -18.443166 -164.787044 57.966033 14.780713 -1.85647 -7.574229 2.399854 140.397233 135.159934 36.585962 -120.567438 -8.760543 -8.752589 0.684762 136.337281 -35.064405 -121.856521 98.451427 38.633911 -83.082012 5.21314 18.12558 1.44743 32.034021 49.342837 -26.115592 -172.332688 -60.071905 -136.290051 145.122224 1.390089 179.564558 -9.997544 -1.403334 9.171489 -163.461841 87.347884 122.227559 -5.249341 10.966141 -1.831235 0.001199 0.00059 0.000747 -56.738547 -47.988251 -45.984602 40.655708 75.429602 -158.398975 -145.028399 78.882951 -130.89574 -179.977113 75.750214 -0.017282 -135.210247 38.983391 51.477887 84.296136 24.042348 3.060241 -79.97396 43.918905 -27.549728
54.332800000000006 56.0521 -33.997 -0.725245 -7.328254 3.205016 -2.410272 8.862181 -142.608728 0.727444 8.896525 137.47565 -13.026625 23.257272 -37.132907 27.223513 -22.735193 -0.703405 0.000999 0.0 0.001696 0.000484 -0.0 -0.001458 0.887031 -5.687845 -1.21933 48.991845 5.153329 28.689383 -13.026024 -35.80359 75.374589 -4.822216 35.098024 3.468337 -171.939087 -9.619624 89.944876 104.594405 -64.96107 78.337761 -27.016713 30.362812 19.761301 -158.989857 -4.516667 110.674744 -157.375734 3.092142 141.488739 -9.323277 29.53405 7.791764 -145.122391 0.817724 -179.386471 8.901917 -12.511453 -10.715586 -9.70515 -20.117209 -9.181887 -151.565353 27.978538 -146.931623 0.940569 5.291866 -1.223036 97.642392 -12.228765 177.091396 -159.8905 -41.661115 88.410418 18.249666 -29.96347 6.588186 163.371188 -1.050785 -89.420931 98.321578 8.224607 -41.575556 111.749915 32.227282 -94.566752 -50.493187 -56.868505 -8.916433 154.795223 9.99995 -139.867073 174.362769 -36.780635 -143.189489 145.119813 0.395894 179.251373 -12.009441 50.518045 3.062059 10.314325 -21.08332 9.768424 -12.401457 31.803007 -7.021562 0.000261 -0.000301 0.000713 -59.178944 -48.055633 43.248507 72.04683 -21.184853 -29.963935 31.299206 -73.967566 -63.643575 0.000261 -0.000301 0.000713 37.107506 -23.252411 147.556884 82.806572 -11.241221 -171.190331 -176.906551 56.46488 -91.953902
54.3678 55.967999999999996 -34.0754 -0.833594 -7.317088 3.188245 -4.115701 13.140246 10.333342 4.621201 -12.679414 -14.427036 -15.71264 32.089001 -89.833974 43.364056 8.43418 44.124314 -0.001329 -0.0 0.004576 -0.002015 0.0 -0.000126 4.004128 -37.928968 -7.306827 53.500107 8.781013 5.630683 179.515933 15.664698 60.965996 153.231671 -37.891502 138.482881 -12.487776 11.673766 3.157956 -45.098434 23.04166 44.971936 162.524122 -68.955168 104.66988 173.485237 -54.303697 104.962908 -129.111926 47.482639 118.470295 -164.244324 -8.232491 143.397929 -145.077414 -2.610735 -178.305608 11.922383 23.589098 -6.295975 3.373946 9.534527 3.071127 13.573012 38.70997 8.081079 144.819879 35.840717 -149.368326 108.118815 28.213149 -70.656842 176.66778 11.045524 74.823997 16.40524 -48.324573 13.055092 20.242569 17.964357 -6.218215 -114.339836 -74.205223 -38.834736 -166.206782 -67.451714 -107.488556 -175.051551 -53.253727 -106.221951 158.791157 -0.979001 -142.292397 146.348058 33.991717 -132.903319 0.028077 4.921202 -1.547726 156.852827 -43.141865 -177.096784 44.215918 -47.835855 43.004068 146.39559 11.397244 143.067518 0.149767 -0.000206 0.119066 -59.099786 -47.883562 30.509547 80.90017 1.382267 146.609514 65.438898 -39.035992 170.890454 0.000182 -0.00072 0.000427 38.891371 -21.673139 -47.794651 -91.291429 -0.24438 -83.948492 82.456692 37.720074 155.326599
